<svg width="24" height="24" viewBox="0 0 24 24" fill="none" xmlns="http://www.w3.org/2000/svg">
  <path opacity="0.4" d="M4 3C3.44772 3 3 3.44772 3 4V20C3 20.5523 3.44772 21 4 21H20C20.5523 21 21 20.5523 21 20V4C21 3.44772 20.5523 3 20 3H4ZM4 1H20C21.1046 1 22 1.89543 22 3V21C22 22.1046 21.1046 23 20 23H4C2.89543 23 2 22.1046 2 21V3C2 1.89543 2.89543 1 4 1Z" fill="#637381"/>
  <path d="M7 6H17C17.5523 6 18 6.44772 18 7C18 7.55228 17.5523 8 17 8H7C6.44772 8 6 7.55228 6 7C6 6.44772 6.44772 6 7 6Z" fill="#637381"/>
  <path d="M7 10H14C14.5523 10 15 10.4477 15 11C15 11.5523 14.5523 12 14 12H7C6.44772 12 6 11.5523 6 11C6 10.4477 6.44772 10 7 10Z" fill="#637381"/>
  <path d="M7 14H13C13.5523 14 14 14.4477 14 15C14 15.5523 13.5523 16 13 16H7C6.44772 16 6 15.5523 6 15C6 14.4477 6.44772 14 7 14Z" fill="#637381"/>
</svg>
