<svg fill="#000000" width="800px" height="800px" viewBox="0 0 24 24" xmlns="http://www.w3.org/2000/svg">
  <g>
    <!-- Book icon -->
    <path d="M4 2C2.343 2 1 3.343 1 5v14c0 1.657 1.343 3 3 3h12c1.657 0 3-1.343 3-3V5c0-1.657-1.343-3-3-3H4zm0 2h12c.553 0 1 .447 1 1v14c0 .553-.447 1-1 1H4c-.553 0-1-.447-1-1V5c0-.553.447-1 1-1zm5 12h-1v-1h1v1zm0-2h-1v-1h1v1zm2 2h-1v-1h1v1zm0-2h-1v-1h1v1zm2 2h-1v-1h1v1zm0-2h-1v-1h1v1zm2 2h-1v-1h1v1zm0-2h-1v-1h1v1zM4 17h12v-1H4v1zm0-2h12v-1H4v1z" />
    <!-- Plus sign -->
    <path d="M15 9h-2V7h-1v2H9v1h2v2h1v-2h2v-1z" />
  </g>
</svg>
