<svg
  fill="none"
  stroke="#000000"
  stroke-width="2"
  width="800px"
  height="800px"
  viewBox="0 0 24 24"
  xmlns="http://www.w3.org/2000/svg"
  style="filter: drop-shadow(2px 2px 4px rgba(0, 0, 0, 0.3));"
>
  <circle cx="12" cy="12" r="3.5" stroke="none" />
  <path
    d="M19.14 12.936l1.666-2.887a1.002 1.002 0 0 0 .029-1.008l-2.257-1.326a1 1 0 0 0-1.267.329l-1.661 2.87a5.945 5.945 0 0 0-1.095-.227c-.29 0-.573.027-.851.075l-.453-2.537a1 1 0 0 0-1.167-.826l-2.538.452a1 1 0 0 0-.82 1.167l.453 2.537a5.945 5.945 0 0 0-1.595 1.094l-2.866-1.661a1 1 0 0 0-1.327 1.267l1.327 2.257a1.003 1.003 0 0 0 1.008.028l2.886-1.666a5.963 5.963 0 0 0 .458 1.194l-1.885 3.27a1 1 0 0 0 .274 1.272l2.537.453a1 1 0 0 0 1.167-.82l.452-2.538a5.945 5.945 0 0 0 1.195.457l1.661 2.866a1 1 0 0 0 1.268 1.327l2.257-1.327a1 1 0 0 0 .028-1.008l-1.662-2.886a5.973 5.973 0 0 0 1.194-.459l3.273 1.884a1 1 0 0 0 1.272-.274l.453-2.537a1 1 0 0 0-.82-1.167l-2.537-.453a5.963 5.963 0 0 0-.457-1.195z"
  />
</svg>
