<svg width="24" height="24" viewBox="0 0 24 24" fill="none" xmlns="http://www.w3.org/2000/svg">
  <path opacity="0.4" d="M3 4C2.44772 4 2 4.44772 2 5V19C2 19.5523 2.44772 20 3 20H5C5.55228 20 6 19.5523 6 19V5C6 4.44772 5.55228 4 5 4H3ZM8 4C7.44772 4 7 4.44772 7 5V19C7 19.5523 7.44772 20 8 20H10C10.5523 20 11 19.5523 11 19V5C11 4.44772 10.5523 4 10 4H8ZM13 4C12.4477 4 12 4.44772 12 5V19C12 19.5523 12.4477 20 13 20H15C15.5523 20 16 19.5523 16 19V5C16 4.44772 15.5523 4 15 4H13ZM18 4C17.4477 4 17 4.44772 17 5V19C17 19.5523 17.4477 20 18 20H20C20.5523 20 21 19.5523 21 19V5C21 4.44772 20.5523 4 20 4H18Z" fill="#637381"/>
</svg>
